<svg preserveAspectRatio="none" width="100%" height="100%" overflow="visible" style="display: block;" viewBox="0 0 20 20" fill="none" xmlns="http://www.w3.org/2000/svg">
<g id="Star1">
<path id="Star" d="M15.1921 12.0053C14.9682 12.2223 14.8653 12.5362 14.9163 12.844L15.6849 17.0978C15.7498 17.4584 15.5976 17.8233 15.2958 18.0316C15.0002 18.2478 14.6068 18.2737 14.2843 18.1008L10.4549 16.1036C10.3218 16.0327 10.1739 15.9946 10.0226 15.9903H9.83461C9.80379 15.9903 9.77291 15.9921 9.74279 15.9986C9.67744 16.0126 9.61388 16.0358 9.55488 16.0681L5.72468 18.0749C5.53533 18.17 5.32091 18.2037 5.11081 18.17C4.59897 18.0731 4.25745 17.5855 4.34131 17.071L5.11081 12.8172C5.16182 12.5068 5.05894 12.1912 4.835 11.9707L1.71292 8.94463C1.45181 8.69131 1.36102 8.31088 1.48034 7.96763C1.5962 7.62525 1.89189 7.37538 2.24897 7.31918L6.54605 6.6958C6.87287 6.66208 7.15992 6.46322 7.30691 6.16926L9.20039 2.28718C9.24535 2.20072 9.30328 2.12118 9.37331 2.05374L9.40789 2.02684C9.43666 2.00447 9.46282 1.97898 9.48975 1.95443C9.50695 1.93875 9.52502 1.92422 9.54391 1.91076C9.57386 1.88944 9.60768 1.87445 9.6422 1.86178L9.68457 1.84624L9.71722 1.83279C9.79271 1.80171 9.87355 1.78571 9.95519 1.78571H10.1955C10.5206 1.81943 10.8068 2.01397 10.9564 2.30448L12.875 6.16926C13.0133 6.45198 13.2822 6.64825 13.5926 6.6958L17.8897 7.31918C18.2528 7.37106 18.5563 7.62179 18.6764 7.96763C18.7897 8.31434 18.692 8.69476 18.4257 8.94463L15.1921 12.0053Z" fill="var(--fill-0, #0F8857)"/>
</g>
</svg>
